<svg xmlns="http://www.w3.org/2000/svg" viewBox="0 0 179.05 179.05"><defs><style>.cls-1{fill:#0073ff;}.cls-2{fill:#fff;}</style></defs><g id="Ebene_2" data-name="Ebene 2"><g id="Ebene_2-2" data-name="Ebene 2"><circle class="cls-1" cx="89.52" cy="89.52" r="89.52"/><path class="cls-2" d="M113.47,146.73a2.36,2.36,0,0,1-2.13-1.31L89.12,106.36,66.07,145.42a2.81,2.81,0,0,1-2.29,1.31H38.29c-.66,0-1-.66-.66-1.31L75.06,86.74,40.57,33.63c-.32-.66,0-1.31.66-1.31h27a2.81,2.81,0,0,1,2.28,1.31L89.93,66.81l19.78-33.18A2.81,2.81,0,0,1,112,32.32h25.33c.65,0,1,.65.65,1.31L103.82,87.4l37.59,58c.33.65,0,1.31-.65,1.31Z"/></g></g></svg>