<svg xmlns="http://www.w3.org/2000/svg" viewBox="0 0 179.05 179.05"><defs><style>.cls-1{fill:#ff1f3c;}.cls-2{fill:#fff;}</style></defs><g id="Ebene_2" data-name="Ebene 2"><g id="Ebene_2-2" data-name="Ebene 2"><circle class="cls-1" cx="89.52" cy="89.52" r="89.52"/><path class="cls-2" d="M121.39,138.75a2.31,2.31,0,0,1-2-1.47l-8.82-27.62H67.79l-8.5,27.62a2.31,2.31,0,0,1-2,1.47H34.94a1,1,0,0,1-1-1.47L72.69,25.81a2.3,2.3,0,0,1,2-1.47h30.56a2.29,2.29,0,0,1,2,1.47l37.92,111.47a1,1,0,0,1-1,1.47Zm-17-48.87L88.71,41,73.83,89.88Z"/></g></g></svg>