<svg xmlns="http://www.w3.org/2000/svg" viewBox="0 0 179.05 179.05"><defs><style>.cls-1{fill:#ffd500;}.cls-2{fill:#fff;}</style></defs><g id="Ebene_2" data-name="Ebene 2"><g id="Ebene_2-2" data-name="Ebene 2"><circle class="cls-1" cx="89.52" cy="89.52" r="89.52"/><path class="cls-2" d="M100.21,146.73h-50a1.47,1.47,0,0,1-1.47-1.47l.81-55.74-.81-55.73a1.46,1.46,0,0,1,1.47-1.47H99.39c23.37,0,40.7,8.5,40.7,28.27,0,13.9-7.36,21.74-19.61,25.34,15.2,3.59,22.71,13.56,22.71,26.15C143.19,136.92,122.11,146.73,100.21,146.73ZM73.41,78.41H99.72c9.64,0,15.53-4.9,15.53-14.22,0-10.13-7-14.55-15.53-14.55H74.06Zm.65,51H99.72c10.3,0,18.31-3.92,18.31-17.32,0-12.1-8.34-16.35-18.31-16.35H73.41Z"/></g></g></svg>