<svg xmlns="http://www.w3.org/2000/svg" viewBox="0 0 284.48 179.05"><defs><style>.cls-1{fill:#fff;}</style></defs><g id="Ebene_2" data-name="Ebene 2"><g id="Ebene_1-2" data-name="Ebene 1"><path d="M284.47,31.7A21.5,21.5,0,0,0,258.1,11.3l-9.51,2.19a22.36,22.36,0,0,0-2.74.85,22.06,22.06,0,0,0-2.93.46l-34.24,7.91a22.52,22.52,0,0,0-3.05,1h-.09a89.55,89.55,0,0,0-144,33l-2.95.68a21.86,21.86,0,0,0-7,3c-1.35-.12-2.71-.2-4.11-.2a55.76,55.76,0,0,0-12.42,1.48c-27.77,6.42-38,28.5-33.71,47a36.28,36.28,0,0,0,1.36,4.51A21.77,21.77,0,0,0,0,124.35l0,1.57.28,1.55c3.35,18.65,18.69,30.7,39.09,30.7a57,57,0,0,0,12.87-1.52A50.25,50.25,0,0,0,71.38,148a22,22,0,0,0,6.43,1H78a89.53,89.53,0,0,0,153-34.81l22-5.07a20,20,0,0,0,2.46-.74,21,21,0,0,0,2.6-.43l9.53-2.2a21.89,21.89,0,0,0,16.92-21.41V74.15c0-.76-.09-1.5-.18-2.23a21.38,21.38,0,0,0,.2-3.11l0-36.5V31.7Z"/><path class="cls-1" d="M65.73,113.58c2.06,8.92-3.36,19.19-18.17,22.61-12.62,2.92-24.43-.55-26.56-12.43a.79.79,0,0,1,.58-.82l10.23-2.37a.67.67,0,0,1,.8.5c1.76,5.64,6.22,8.43,13.77,6.68,7.76-1.79,8.78-6.31,8.16-9-2.31-10-28.79,2.06-32.69-14.84-2-8.71,3.16-18.39,18-21.81,11.1-2.56,20.89-.23,24.1,10.72a.65.65,0,0,1-.5.8L53.11,96a.67.67,0,0,1-.8-.5C51,91.37,46.75,89.3,41,90.63c-5.45,1.25-9,4.68-8.16,8.38C35,108.29,61.89,97,65.73,113.58Z"/><path class="cls-1" d="M77.92,128a.56.56,0,0,1-.66-.54l.45-26.16-.34-18-14,3.24a.55.55,0,0,1-.65-.54V78.66a.88.88,0,0,1,.65-.84l39.32-9.08a.53.53,0,0,1,.66.54v7.26a.89.89,0,0,1-.65.84l-14,3.23-.38,18.2.49,26a.88.88,0,0,1-.64.84Z"/><path class="cls-1" d="M128.92,104.26,124,97.45l-7.33,1.69.21,19.13a.86.86,0,0,1-.64.84l-9.94,2.3a.53.53,0,0,1-.66-.54l.31-26.13-.28-26a.89.89,0,0,1,.65-.84l19.23-4.44c10.81-2.49,18.38.5,20.35,9.06,2.17,9.36-1.66,17-10.15,21.22l12.49,17.37a.48.48,0,0,1-.3.68l-11.53,2.66a1.08,1.08,0,0,1-1-.38Zm-2.25-32.57L116.81,74l-.2,16.71L128.15,88c4.64-1.07,8.7-5,7.15-11.73C134.32,72.06,131.53,70.56,126.67,71.69Z"/><path class="cls-1" d="M151.93,110.86a.51.51,0,0,1-.66-.53l.38-26.15-.35-26a.89.89,0,0,1,.65-.84l9.87-2.28a.53.53,0,0,1,.66.54l-.38,26.15.34,26a.88.88,0,0,1-.65.84Z"/><path class="cls-1" d="M192.53,91.78l-8.37-11.44-5,7.66.15,15.86a.89.89,0,0,1-.65.84L168.76,107a.53.53,0,0,1-.66-.54l.31-26.13-.27-26a.86.86,0,0,1,.64-.83l9.87-2.28a.51.51,0,0,1,.66.53l-.19,20.68,14.23-24.07a1.74,1.74,0,0,1,1-.76l12.85-3a.24.24,0,0,1,.24.4L190.66,70.43l20.19,26.22a.41.41,0,0,1-.23.66l-11.24,2.6a1.09,1.09,0,0,1-1.08-.37Z"/><path class="cls-1" d="M213.38,96.67a.51.51,0,0,1-.65-.53L213,70l-.27-26a.88.88,0,0,1,.65-.84l34.24-7.91a.52.52,0,0,1,.66.54v7.26a.87.87,0,0,1-.65.83l-23.73,5.48-.2,12.36,21.77-5a.52.52,0,0,1,.66.54V64.5a.86.86,0,0,1-.65.83l-21.76,5,.16,15.25L248.2,80a.52.52,0,0,1,.66.54v7.26a.89.89,0,0,1-.65.84Z"/><path class="cls-1" d="M253.29,87.45a.52.52,0,0,1-.66-.53V77.29a.87.87,0,0,1,.64-.84l9.51-2.19a.52.52,0,0,1,.66.53v9.63a.87.87,0,0,1-.64.84Zm0-15.51a.56.56,0,0,1-.66-.54l0-36.61a.88.88,0,0,1,.65-.84l9.5-2.19a.52.52,0,0,1,.66.53l0,36.62a.86.86,0,0,1-.64.83Z"/></g></g></svg>