<svg xmlns="http://www.w3.org/2000/svg" viewBox="0 0 224.09 873.92"><defs><style>.cls-1{fill:#f0f;}.cls-2{fill:#fff;stroke:#f0f;stroke-miterlimit:10;stroke-width:5px;}</style></defs><g id="Ebene_2" data-name="Ebene 2"><g id="Ebene_2-2" data-name="Ebene 2"><path class="cls-1" d="M35.2,162.72c.39-.49.82-.94,1.18-1.45a9.2,9.2,0,0,1,10.49-3.81,9.1,9.1,0,0,1,6.38,8.9c0,.4,0,.8,0,1.41a3.61,3.61,0,0,0,.77-.53,9.42,9.42,0,0,1,9-3.79c.47.05,1,.05,1.43.07l.9.1a6.53,6.53,0,0,0,1,1,9.26,9.26,0,0,1,4.57,8.17,2.63,2.63,0,0,0,.06.47c0,.06.09.1.34.39,2.16-3.08,5.27-4.38,9.34-4.4-.68-.68-1.06-1.05-1.42-1.43a9,9,0,1,1,15.17-4.63,6.82,6.82,0,0,1-.29.91c-1.38,4.55-4.89,6.16-9.28,6.54a29.8,29.8,0,0,1,2.93,3.86A28.71,28.71,0,0,1,89.34,179a11.14,11.14,0,0,1,8.06-3.57c-.31-.43-.42-.64-.57-.8a9.35,9.35,0,0,1-2.7-9,7,7,0,0,0,0-1.65,7,7,0,0,0,1.18-1c2.75-3.76,6.62-5.17,10.66-3.88a9.17,9.17,0,0,1,6.36,9.16c0,.24,0,.48,0,1,.46-.4.81-.63,1.09-.93,2.8-3.07,6.24-4.23,10.18-2.88a8.93,8.93,0,0,1,6.37,8.19,4.21,4.21,0,0,0,.12.71c0,.05.11.08.37.25a10.27,10.27,0,0,1,9.39-3.51c-2.86-2.53-4.5-5.14-4.27-8.59a9,9,0,0,1,12.28-7.91c4.18,1.6,6.1,5.18,5.73,10.9,2.74-4.17,6.34-6.07,11.14-4.84,3.86,1,5.89,3.87,6.88,9.41a26.52,26.52,0,0,1,4.41-2.92,26.68,26.68,0,0,1,5.18-1.11c-.25-.26-.57-.63-.93-1a9.05,9.05,0,0,1-1.76-11.55A9,9,0,0,1,195,159.61a9.05,9.05,0,0,1-8.82,7.65c-.52,0-1,0-1.76,0,3,3.17,3.54,2.44,4.93,8.71a26.6,26.6,0,0,1,3.93-2.51,29.54,29.54,0,0,1,4.76-1.2c-.32-.37-.68-.82-1.06-1.25a9.11,9.11,0,0,1,9.35-15,9.27,9.27,0,0,1,6.45,9.12c0,2.22.1,4.45.15,6.68,0,.79,0,1.58,0,2.82-1.32-1.76-1-3.4-1.12-5a27.91,27.91,0,0,1-4.06,3.15,26.8,26.8,0,0,1-4.87,1.47,10.79,10.79,0,0,1,4,7.7c1.92-1.58,3.54-2.86,6-3.21,0,.93.11,1.76.12,2.59v509.5c0,5.34-.08,10.68.05,16a3.35,3.35,0,0,1-2.19,3.53,9.54,9.54,0,0,1-5.58,1c-.7-.12-1.42-.22-2.12-.33l.07,0c-.66-.44-1.32-.86-2-1.31-2.79-1.92-3.92-4.74-4.15-8a29.2,29.2,0,0,1-4.35,2.85,25,25,0,0,1-4.75,1.06c4.4,5.26,5,9.45,1.84,13.37a9,9,0,0,1-11.26,2.3A8.58,8.58,0,0,1,174.24,711c1.13-5,5-6.43,9.89-6.87-3.23-2.16-4.53-5-4.89-8.75a10.86,10.86,0,0,1-8.33,3.93,4.7,4.7,0,0,0,.4.68,9.27,9.27,0,0,1,2.85,9.13,6.66,6.66,0,0,0,.08,1.88c-1.06-.31-1.11.7-1.49,1.2a9.2,9.2,0,0,1-16.68-4.83c0-.55,0-1.11,0-1.94a10.24,10.24,0,0,0-1.07.92c-2.83,3.22-6.36,4.27-10.38,2.89s-6.1-4.44-6.26-8.74a6.88,6.88,0,0,0-.1-.72,29.51,29.51,0,0,1-4.19,3,26.86,26.86,0,0,1-4.95,1.35c.33.38.7.82,1.1,1.24a9.06,9.06,0,1,1-15.5,7,14.83,14.83,0,0,1,.47-3.26c1.22-4.72,4.93-6.14,9.54-6.75a11,11,0,0,1-4.5-8.51c-2.31,2.75-5.07,3.55-8.23,4,3,3,4,6.24,3.16,10.06a4.75,4.75,0,0,0,0,1.19,13.26,13.26,0,0,0-1.28,1.32,9.3,9.3,0,0,1-9.89,3.78,9.19,9.19,0,0,1-7-8.2c-.06-.53-.12-1.07-.18-1.68-4.18,3.75-4.61,3.93-10.35,4.1,2.66,2,4.51,4.3,4.63,7.59a8.91,8.91,0,1,1-17.62-1.35c1.09-4.77,4.65-7.16,10.55-7a26.28,26.28,0,0,1-3.45-4,27.54,27.54,0,0,1-1.7-5.13A10.22,10.22,0,0,1,70,702.18c4.17,5.36,4.8,9.06,2.31,12.86a9,9,0,0,1-9.59,3.88c-4.45-1-6.66-4-7.35-10.27-2.95,3.62-6.49,5.43-11,4s-6.35-5-6.65-10a10.57,10.57,0,0,1-9.93,4.12c.69.69,1.08,1.1,1.49,1.49a9,9,0,1,1-15,6.08c0-.72.1-1.44.15-2.15l-.06-.75a7.74,7.74,0,0,0,1.14-1.15,9,9,0,0,1,8.26-4.39c.3,0,.59,0,.91-.08a27.43,27.43,0,0,1-3.17-3.87,26.64,26.64,0,0,1-1.63-4.65c-4.15,3-5,3.36-8.19,3.21-.53-1.84-.75-28.16-.31-35.71l3.84-1.64-1.35-2.4-2.4.62V185.2l2.12-.79-1.08-1.57a6.67,6.67,0,0,1-1.23-4.05,97.56,97.56,0,0,1,.46-10.35l.73,3.68c2.32-3.07,5.34-4.26,9.26-4.2-.82-.87-1.37-1.42-1.88-2a9,9,0,1,1,15.68-5c-.06.63-.2,1.26-.3,1.89-1.77,4.41-5.16,6.36-9.79,6.26a28,28,0,0,1,3.12,3.77,29.66,29.66,0,0,1,1.75,4.68,11.22,11.22,0,0,1,8.32-3.63c-.43-.52-.62-.76-.83-1a9.13,9.13,0,0,1-2.63-8.74A8.4,8.4,0,0,0,35.2,162.72Zm112.77,18a12.1,12.1,0,0,1,8.54-3.69,11,11,0,0,1-3.83-9.41c-2.19,3.26-5.29,4.64-9.62,4.6A11.09,11.09,0,0,1,148,180.75Zm-82.37,520a12,12,0,0,1-4.16-8.08,11.57,11.57,0,0,1-8,3.68,26.52,26.52,0,0,1,2.47,4.2,28.4,28.4,0,0,1,.92,4.91A10.14,10.14,0,0,1,65.6,700.76ZM47.81,183.53A12.25,12.25,0,0,1,55.7,180c-2.75-2.48-3.49-5.4-3.57-9-2.27,3.1-5,4.39-8.87,4.66C46.1,177.67,47.24,180.22,47.81,183.53Zm106.3,509.71c2.32,2.39,3,5.31,3.16,8.9,2.22-3.07,5-4.27,8.63-4.62a11.21,11.21,0,0,1-4.42-7.73A12.46,12.46,0,0,1,154.11,693.24ZM106.79,184.78a32,32,0,0,1,3.45-2.1,36.23,36.23,0,0,1,4.08-1.25,11.63,11.63,0,0,1-3.37-8.31c-2,2.65-4.79,3.86-8.48,4.14A11.43,11.43,0,0,1,106.79,184.78Zm-63,502.54-7.26,3.27c1.88,2,2.8,4.69,2.81,8.28,2.23-3,4.91-4.2,8.41-4.55A11.36,11.36,0,0,1,43.77,687.32Zm51.57,4.9a11.21,11.21,0,0,1,3,7.65,29.66,29.66,0,0,1,3.76-2.8,26.59,26.59,0,0,1,4.34-1.44,11.21,11.21,0,0,1-3.83-6.63Zm74.72-517.61a10.8,10.8,0,0,1-7.7,4.34l3.72,6.68,6.8-3A11.27,11.27,0,0,1,170.06,174.61ZM65.69,188.49l6.77-2.91c-2-2.06-2.75-4.65-2.66-8.17a10.5,10.5,0,0,1-7.65,4.71Zm137,497.82-6.83,2.93c1.8,1.93,2.66,4.4,2.73,7.76a10.56,10.56,0,0,1,7.61-4.32C205,690.43,203.79,688.32,202.68,686.31Zm-59.05-1.56L137,687.57a11.72,11.72,0,0,1,2.79,7.44,11.37,11.37,0,0,1,7.31-4.07C145.92,688.85,144.77,686.8,143.63,684.75ZM128,180.36a10.12,10.12,0,0,1-6.71,3.44c1.23,2.21,2.41,4.31,3.48,6.24l5.93-2.62Zm-39.81,509a36,36,0,0,1-2.11-3,30.4,30.4,0,0,1-1.34-3.17l-6.17,2.71a27.29,27.29,0,0,1,1.74,3.35,27.84,27.84,0,0,1,.9,3.83C84.2,690.53,84.2,690.53,88.14,689.38ZM189.52,189,186.89,182a11,11,0,0,1-6.45,3.36l3.38,6.21ZM19.91,684.14l2.4,6.62,6.35-3.28c-1-1.86-2.11-3.85-3.18-5.78Zm161.68,5.06L188,686l-3-5.5-5.63,2.38C180.08,685.05,180.85,687.18,181.59,689.2ZM24.85,185.62l-.87.44a2.87,2.87,0,0,0-1.22,4l2,3.5,5.82-3a36,36,0,0,1-1.69-3.26v0A2.88,2.88,0,0,0,24.85,185.62Zm64.36,6.24a35.63,35.63,0,0,1-1.57-3.24,28.73,28.73,0,0,1-.76-3l-6.5,3.27c1,1.75,2,3.66,3,5.41Zm33.42,495.52,6.25-3.12-2.95-5.35-5.48,2.35C121.18,683.29,121.93,685.41,122.63,687.38ZM148,193.44c-.5-1.08-1.09-2.12-1.48-3.23a30,30,0,0,1-.78-3.33,34.49,34.49,0,0,1-3.09,2.2,29.22,29.22,0,0,1-3.24,1.33c1.06,1.94,2.05,3.72,3,5.42ZM61.58,679.68,64,685.61l5.8-3L66.9,677.4ZM201.44,197.32l5.22-2.23-2.32-5.81-5.7,2.95Zm-154.33-.84-2-5.67-5.72,2.92,2.17,3.92a1.24,1.24,0,0,0,1.57.54ZM164.26,682.23l5.63-2.87c-.88-1.57-1.76-3.13-2.64-4.72l-4.95,2.08C163,678.57,163.61,680.41,164.26,682.23ZM98.49,195.46l2.08,3.67a1.24,1.24,0,0,0,1.57.53l3.8-1.63L104,192.61ZM44.61,673.79,46.48,679l5.3-2.81-2.59-4.41Zm66.14,3.88-2.49-4.32-4.79,2.09,1.82,5Zm46.89-480.51,2.46,4.2,4.69-2-1.85-4.9Zm53.23,477.37-2.34-4.11-4.38,1.9c.62,1.68,1.2,3.21,1.77,4.76ZM58.67,202.43l.08.14a2.33,2.33,0,0,0,2.92,1l.43-.17a2.34,2.34,0,0,0,1.3-3h0a2.5,2.5,0,0,0-3.5-1.36l-.28.14A2.33,2.33,0,0,0,58.67,202.43ZM147,675.28l4.79-2.48-2.14-3.73L145.35,671C145.91,672.46,146.4,673.79,147,675.28Zm-24.1-471.45-1.53-4.22-3.51,1.85a1.24,1.24,0,0,0-.49,1.73l.86,1.46a1.24,1.24,0,0,0,1.56.51ZM88.08,673.67l4.45-2.33c-.71-1.25-1.39-2.46-2.1-3.73l-3.87,1.73ZM181.7,205.42c-.54-1.45-1-2.8-1.56-4.16l-4.25,2.24c.68,1.18,1.33,2.33,2,3.54Zm-154,462.29c.58,1.52,1.08,2.8,1.58,4.1l4.19-2.2-2-3.49ZM20,207.74l.46-.22a1.91,1.91,0,0,0,1-2.37v0a1.9,1.9,0,0,0-2.7-1l-.46.24a1.92,1.92,0,0,0-.75,2.63h0A1.92,1.92,0,0,0,20,207.74ZM187.29,666.31l1.45,3.89,4-2.07c-.67-1.15-1.29-2.23-2-3.37ZM80.47,207.19,80,206a1.24,1.24,0,0,0-1.74-.64l-1.54.81a1.25,1.25,0,0,0-.49,1.75l.6,1a1.25,1.25,0,0,0,1.54.5l1.44-.59A1.25,1.25,0,0,0,80.47,207.19Zm53.09,459.26-1.84-3-3.21,1.38c.48,1.27.92,2.41,1.36,3.58Zm4.87-460L135,208.35l1.71,3,3.08-1.34C139.27,208.76,138.89,207.74,138.43,206.49ZM69.79,663.32l1.13,3.27,3.45-1.88c-.62-1-1.12-1.85-1.64-2.7ZM195.7,212.8c1-.68,2.19-.53,2.71-1.59-.37-1-.72-1.85-1.11-2.84l-3.2,1.71Zm-159.9,0,.18.3a1.4,1.4,0,0,0,1.82.52l0,0a1.41,1.41,0,0,0,.69-1.77l-.13-.33a1.41,1.41,0,0,0-2-.74l-.09.05A1.41,1.41,0,0,0,35.8,212.76ZM173,659.51l-2.34,1.13.88,2.44,2.7-1.42ZM94.76,214.35h0a1.25,1.25,0,0,0,1.63.46l.22-.12a1.23,1.23,0,0,0,.57-1.59h0a1.23,1.23,0,0,0-1.71-.61l-.23.12A1.23,1.23,0,0,0,94.76,214.35ZM114.08,657.9l-2.35,1.15c.36.8.63,1.43,1,2.17l2.46-1.38ZM153.13,215l1.13,1.83,2.17-.91-.76-2.17ZM53.68,659.4l2.2-1.23L55,656.59l-2,.9Zm-.51-441.21c.58.73.59,2,1.85,1.35s.28-1.41,0-2.31Zm101,437.57c1.31-.27,1.41-.84.84-1.53-.17-.2-.63-.16-1-.23Zm-59.06-1.62c1.21-.34,1.82-.6,1.26-1.39-.21-.3-.7-.4-1.06-.58Zm76.36-432.52a13.68,13.68,0,0,0,1.22,1.11s.59-.49.55-.56a4.57,4.57,0,0,0-.9-1.11C172.31,221,171.92,221.34,171.49,221.62Zm-57.61-2.68c-1.24,1-.87,1.58-.11,2.05.08,0,.28-.09.63-.21ZM35.69,650.8c.57.58.91.94,1.28,1.27,0,0,.42-.27.42-.41C37.39,651,37.18,650.44,35.69,650.8Zm161.14-1c-.36-.31-.56-.62-.79-.65s-.52.36-.51.55a.82.82,0,0,0,.5.61C196.22,650.33,196.47,650,196.83,649.78Z"/><path class="cls-1" d="M127.16,165.48a8.74,8.74,0,0,1-8.93-8.68,8.87,8.87,0,0,1,8.79-9.12,9,9,0,0,1,9,9A8.88,8.88,0,0,1,127.16,165.48Z"/><path class="cls-1" d="M150.07,718.17a8.74,8.74,0,0,1-8.74,8.89,8.87,8.87,0,0,1-9-8.93,9,9,0,0,1,8.93-8.84A8.87,8.87,0,0,1,150.07,718.17Z"/><path class="cls-1" d="M65.4,163.62l-.9-.1c-.57-.42-1.16-.83-1.73-1.26a8.87,8.87,0,1,1,14.09-5.77A8.73,8.73,0,0,1,68,164,19.2,19.2,0,0,1,65.4,163.62Z"/><path class="cls-1" d="M203.05,711.07c.81.5,1.67.94,2.43,1.5a8.82,8.82,0,1,1-4-1.66l1.65.21Z"/><path class="cls-1" d="M32,721.44a8.79,8.79,0,1,1,17.57-.1,8.79,8.79,0,0,1-17.57.1Z"/><path class="cls-1" d="M177.34,152.14a8.79,8.79,0,1,1-8.74-8.86A8.82,8.82,0,0,1,177.34,152.14Z"/><path class="cls-1" d="M91,722.76a8.76,8.76,0,1,1,8.62,8.78A8.75,8.75,0,0,1,91,722.76Z"/><path class="cls-1" d="M109.57,159.12a8.73,8.73,0,1,1,8.75-8.67A8.72,8.72,0,0,1,109.57,159.12Z"/><path class="cls-1" d="M167.41,724.46a8.7,8.7,0,1,1-8.61-8.69A8.59,8.59,0,0,1,167.41,724.46Z"/><path class="cls-1" d="M50.67,157.34A8.54,8.54,0,0,1,42,148.76,8.66,8.66,0,0,1,50.52,140a8.79,8.79,0,0,1,8.78,8.64A8.66,8.66,0,0,1,50.67,157.34Z"/><path class="cls-1" d="M58.37,736.16a8.5,8.5,0,0,1-8.68-8.61,8.63,8.63,0,0,1,8.48-8.63,8.78,8.78,0,0,1,8.74,8.67A8.63,8.63,0,0,1,58.37,736.16Z"/><path class="cls-1" d="M159.62,145.69A8.6,8.6,0,0,1,151,154.2a8.73,8.73,0,0,1-8.56-8.62,8.61,8.61,0,0,1,8.79-8.57A8.49,8.49,0,0,1,159.62,145.69Z"/><path class="cls-1" d="M117.36,720.71a8.57,8.57,0,1,1-8.64,8.38A8.5,8.5,0,0,1,117.36,720.71Z"/><path class="cls-1" d="M100.6,143.84A8.53,8.53,0,1,1,92,135.35,8.5,8.5,0,0,1,100.6,143.84Z"/><path class="cls-1" d="M176.24,739.46a8.54,8.54,0,1,1,8.54-8.53A8.5,8.5,0,0,1,176.24,739.46Z"/><path class="cls-1" d="M33.2,150.67a8.48,8.48,0,0,1-.33-16.95,8.48,8.48,0,1,1,.33,16.95Z"/><path class="cls-1" d="M192.37,149.2a8.32,8.32,0,0,1-8.48-8.26,8.43,8.43,0,0,1,8.37-8.64,8.52,8.52,0,0,1,8.52,8.53A8.43,8.43,0,0,1,192.37,149.2Z"/><path class="cls-1" d="M75.83,742.45a8.28,8.28,0,0,1-8.44-8.29,8.41,8.41,0,0,1,8.45-8.57,8.53,8.53,0,0,1,8.38,8.46A8.42,8.42,0,0,1,75.83,742.45Z"/><path class="cls-1" d="M126.42,735.62a8.27,8.27,0,0,1,8.46-8.24,8.4,8.4,0,0,1,8.29,8.47,8.54,8.54,0,0,1-8.52,8.31A8.41,8.41,0,0,1,126.42,735.62Z"/><path class="cls-1" d="M141.92,139.14a8.4,8.4,0,0,1-8.34,8.39,8.53,8.53,0,0,1-8.45-8.35,8.39,8.39,0,0,1,8.53-8.45A8.25,8.25,0,0,1,141.92,139.14Z"/><path class="cls-1" d="M82.89,137.64a8.38,8.38,0,0,1-8.37,8.41,8.5,8.5,0,0,1-8.33-8.5,8.37,8.37,0,0,1,8.31-8.23A8.25,8.25,0,0,1,82.89,137.64Z"/><path class="cls-1" d="M185.44,737.13a8.33,8.33,0,0,1,16.66,0,8.45,8.45,0,0,1-8.34,8.43A8.36,8.36,0,0,1,185.44,737.13Z"/><path class="cls-1" d="M34.61,747.15a8.31,8.31,0,0,1-.17-16.62,8.31,8.31,0,1,1,.17,16.62Z"/><path class="cls-1" d="M93.47,732.27a8.25,8.25,0,1,1-8.21,8.24A8.29,8.29,0,0,1,93.47,732.27Z"/><path class="cls-1" d="M183.06,134.21a8.24,8.24,0,1,1-8.28-8.18A8.22,8.22,0,0,1,183.06,134.21Z"/><path class="cls-1" d="M115.76,141a8.08,8.08,0,0,1-8.12-8.26,8.18,8.18,0,0,1,8.25-8.17,8.29,8.29,0,0,1,8.16,8.31A8.18,8.18,0,0,1,115.76,141Z"/><path class="cls-1" d="M152.33,750.13a8,8,0,0,1-8.22-8.16,8.16,8.16,0,0,1,8.22-8.22,8.29,8.29,0,0,1,8.15,8.1A8.16,8.16,0,0,1,152.33,750.13Z"/><path class="cls-1" d="M65.19,131.16A8.15,8.15,0,0,1,57,139.38a8.31,8.31,0,0,1-8.15-8.31A8.16,8.16,0,0,1,57,123,8,8,0,0,1,65.19,131.16Z"/><path class="cls-1" d="M44,745.12a8,8,0,0,1,8-8.1,8.12,8.12,0,0,1,8.2,8.17,8.21,8.21,0,0,1-8.15,8A8.12,8.12,0,0,1,44,745.12Z"/><path class="cls-1" d="M165.35,128a8.07,8.07,0,0,1-16.13,0,8.07,8.07,0,1,1,16.13,0Z"/><path class="cls-1" d="M111.1,754.81a8,8,0,1,1,8-8.17A8,8,0,0,1,111.1,754.81Z"/><path class="cls-1" d="M98.24,134.36a8,8,0,0,1,.16-16,8,8,0,0,1-.16,16Z"/><path class="cls-1" d="M11.31,732.16c0-1.52.06-3,0-4.56a2.5,2.5,0,0,1,1.38-2.53A8.49,8.49,0,0,1,23.4,738a8.48,8.48,0,0,1-10.89,1.61,2.24,2.24,0,0,1-1.22-2.13C11.35,735.68,11.31,733.92,11.31,732.16Z"/><path class="cls-1" d="M170,756.4a8,8,0,0,1-8-8.08,8,8,0,0,1,8-7.87,8,8,0,0,1,7.94,8.12A7.84,7.84,0,0,1,170,756.4Z"/><path class="cls-1" d="M39.51,116.78a7.79,7.79,0,0,1,8,7.81,7.94,7.94,0,0,1-8,8.09,8.05,8.05,0,0,1-7.9-8A7.92,7.92,0,0,1,39.51,116.78Z"/><path class="cls-1" d="M61.68,751.45a7.76,7.76,0,0,1,8-7.74,7.9,7.9,0,0,1,7.81,8,8.05,8.05,0,0,1-8,7.81A7.89,7.89,0,0,1,61.68,751.45Z"/><path class="cls-1" d="M206.67,123.36a7.93,7.93,0,0,1-8,7.86,8.06,8.06,0,0,1-7.85-8.06,7.9,7.9,0,0,1,8-7.79A7.78,7.78,0,0,1,206.67,123.36Z"/><path class="cls-1" d="M139.78,129.42a7.89,7.89,0,0,1-7.89-7.92,8,8,0,0,1,8-7.84,7.89,7.89,0,0,1,7.72,7.86A7.78,7.78,0,0,1,139.78,129.42Z"/><path class="cls-1" d="M128.48,761.08a7.78,7.78,0,0,1-7.78-7.75,7.86,7.86,0,0,1,7.87-8,8,8,0,0,1,7.82,7.8A7.86,7.86,0,0,1,128.48,761.08Z"/><path class="cls-1" d="M80.79,127.94a7.82,7.82,0,1,1,7.82-7.73A7.83,7.83,0,0,1,80.79,127.94Z"/><path class="cls-1" d="M179.73,754.53a7.78,7.78,0,1,1,7.55,8A7.79,7.79,0,0,1,179.73,754.53Z"/><path class="cls-1" d="M21.94,126.19a7.66,7.66,0,0,1-7.85-7.62,7.75,7.75,0,1,1,7.85,7.62Z"/><path class="cls-1" d="M28.15,764.07a7.6,7.6,0,0,1-7.79-7.67,7.71,7.71,0,0,1,7.73-7.78,7.81,7.81,0,0,1,7.71,7.6A7.71,7.71,0,0,1,28.15,764.07Z"/><path class="cls-1" d="M181.33,109.11a7.55,7.55,0,0,1,7.61,7.84,7.69,7.69,0,0,1-7.72,7.56,7.82,7.82,0,0,1-7.67-7.67A7.69,7.69,0,0,1,181.33,109.11Z"/><path class="cls-1" d="M79.41,758.07a7.53,7.53,0,0,1,7.51-7.66,7.69,7.69,0,0,1,7.83,7.64,7.83,7.83,0,0,1-7.81,7.72A7.68,7.68,0,0,1,79.41,758.07Z"/><path class="cls-1" d="M138.42,759.43a7.54,7.54,0,0,1,7.62-7.56,7.66,7.66,0,0,1,7.67,7.57,7.8,7.8,0,0,1-7.8,7.74A7.66,7.66,0,0,1,138.42,759.43Z"/><path class="cls-1" d="M129.9,115.36a7.65,7.65,0,0,1-7.58,7.66,7.81,7.81,0,0,1-7.71-7.59,7.67,7.67,0,0,1,7.77-7.72A7.53,7.53,0,0,1,129.9,115.36Z"/><path class="cls-1" d="M204.93,768.76a7.6,7.6,0,0,1,.06-15.2,7.6,7.6,0,1,1-.06,15.2Z"/><path class="cls-1" d="M70.88,113.57a7.6,7.6,0,1,1-15.19.05,7.6,7.6,0,0,1,15.19-.05Z"/><path class="cls-1" d="M45.49,770.37a7.53,7.53,0,0,1,.15-15.06,7.53,7.53,0,0,1-.15,15.06Z"/><path class="cls-1" d="M171.24,110.58a7.35,7.35,0,0,1-7.46,7.42,7.45,7.45,0,0,1-7.52-7.4,7.56,7.56,0,0,1,7.62-7.59A7.47,7.47,0,0,1,171.24,110.58Z"/><path class="cls-1" d="M104.6,771.73a7.31,7.31,0,0,1-7.48-7.39,7.45,7.45,0,0,1,7.39-7.55,7.58,7.58,0,0,1,7.53,7.45A7.45,7.45,0,0,1,104.6,771.73Z"/><path class="cls-1" d="M11.31,143.17c0-4.52,0-8.82,0-13.12a1.81,1.81,0,0,1,1.44-1.89,8.31,8.31,0,0,1,9.77,12.39,8.21,8.21,0,0,1-9,3.46C12.84,143.82,12.2,143.51,11.31,143.17Z"/><path class="cls-1" d="M104.69,101.45a7.29,7.29,0,0,1,7.5,7.31,7.44,7.44,0,0,1-7.31,7.57A7.58,7.58,0,0,1,97.31,109,7.44,7.44,0,0,1,104.69,101.45Z"/><path class="cls-1" d="M156.15,766.08a7.3,7.3,0,0,1,7.35-7.49A7.44,7.44,0,0,1,171,766a7.59,7.59,0,0,1-7.29,7.43A7.45,7.45,0,0,1,156.15,766.08Z"/><path class="cls-1" d="M53.16,107.22a7.3,7.3,0,0,1-7.29,7.32,7.42,7.42,0,0,1-7.49-7.42,7.54,7.54,0,0,1,7.34-7.37A7.42,7.42,0,0,1,53.16,107.22Z"/><path class="cls-1" d="M205.37,98.39a7.34,7.34,0,1,1-7.43,7.17A7.37,7.37,0,0,1,205.37,98.39Z"/><path class="cls-1" d="M63.09,761.81a7.3,7.3,0,1,1-7.3,7.27A7.27,7.27,0,0,1,63.09,761.81Z"/><path class="cls-1" d="M122.07,778a7.08,7.08,0,0,1-7.21-7.31,7.2,7.2,0,0,1,7.19-7.15,7.33,7.33,0,0,1,7.26,7.37A7.2,7.2,0,0,1,122.07,778Z"/><path class="cls-1" d="M153.5,104a7.15,7.15,0,0,1-7.22,7.32A7.23,7.23,0,0,1,139,104a7.33,7.33,0,0,1,7.14-7.23A7.23,7.23,0,0,1,153.5,104Z"/><path class="cls-1" d="M212.78,139.25v15.9a7.86,7.86,0,0,1-9.26-2.25,8.63,8.63,0,0,1-.51-10.64A8.26,8.26,0,0,1,212.78,139.25Z"/><path class="cls-1" d="M94.45,102.48a7.2,7.2,0,0,1-7.21,7.14,7.34,7.34,0,0,1-7.19-7.22,7.19,7.19,0,0,1,7.38-7.2A7.07,7.07,0,0,1,94.45,102.48Z"/><path class="cls-1" d="M173.9,772.37a7,7,0,0,1,7.17-7.06,7.17,7.17,0,0,1,7.18,7.12,7.33,7.33,0,0,1-7.36,7.24A7.17,7.17,0,0,1,173.9,772.37Z"/><path class="cls-1" d="M35.41,101a7.17,7.17,0,0,1-7.13,7.17,7.3,7.3,0,0,1-7.17-7.19,7.17,7.17,0,0,1,7.19-7.12A7,7,0,0,1,35.41,101Z"/><path class="cls-1" d="M21.69,766.77a7.06,7.06,0,0,1,7,7.24,7.18,7.18,0,0,1-7.24,7.07,7.3,7.3,0,0,1-7.06-7.3A7.17,7.17,0,0,1,21.69,766.77Z"/><path class="cls-1" d="M194.84,99.26a7.09,7.09,0,1,1-7-7.1A7.1,7.1,0,0,1,194.84,99.26Z"/><path class="cls-1" d="M80.57,782.66a7.09,7.09,0,1,1,7.08-7.2A7.1,7.1,0,0,1,80.57,782.66Z"/><path class="cls-1" d="M135.79,97.73a7,7,0,1,1-7-7A7,7,0,0,1,135.79,97.73Z"/><path class="cls-1" d="M139.79,770a7,7,0,0,1,6.8,7.16,7.1,7.1,0,0,1-7.14,6.87,7,7,0,0,1-6.88-7.33A6.89,6.89,0,0,1,139.79,770Z"/><path class="cls-1" d="M76.73,96.08a6.85,6.85,0,0,1-6.91,7,7,7,0,0,1-7.06-6.92,7.1,7.1,0,0,1,7-7.06A7,7,0,0,1,76.73,96.08Z"/><path class="cls-1" d="M198.62,785.62a6.82,6.82,0,0,1-7-6.92,7,7,0,0,1,7-7,7.12,7.12,0,0,1,6.94,6.87A7,7,0,0,1,198.62,785.62Z"/><path class="cls-1" d="M32.45,780.32a6.82,6.82,0,0,1,6.87-6.83,6.92,6.92,0,0,1,6.93,6.82,7,7,0,0,1-7,7A6.92,6.92,0,0,1,32.45,780.32Z"/><path class="cls-1" d="M176.86,93a6.87,6.87,0,0,1-6.73,6.94A6.88,6.88,0,1,1,170,86.15,6.83,6.83,0,0,1,176.86,93Z"/><path class="cls-1" d="M98.19,788.65a6.84,6.84,0,1,1,6.71-7A6.83,6.83,0,0,1,98.19,788.65Z"/><path class="cls-1" d="M104.45,91.39a6.78,6.78,0,0,1,6.81-6.84,6.8,6.8,0,0,1,.11,13.6A6.84,6.84,0,0,1,104.45,91.39Z"/><path class="cls-1" d="M157.13,790.29a6.75,6.75,0,0,1-6.8-6.61,6.62,6.62,0,0,1,6.68-6.92,6.75,6.75,0,0,1,6.84,6.56A6.86,6.86,0,0,1,157.13,790.29Z"/><path class="cls-1" d="M59,89.75a6.6,6.6,0,0,1-6.74,6.61,6.75,6.75,0,0,1-6.73-6.69,6.87,6.87,0,0,1,6.93-6.79A6.73,6.73,0,0,1,59,89.75Z"/><path class="cls-1" d="M56.87,793.27a6.59,6.59,0,0,1-6.69-6.68,6.7,6.7,0,0,1,6.73-6.69,6.83,6.83,0,0,1,6.63,6.61A6.72,6.72,0,0,1,56.87,793.27Z"/><path class="cls-1" d="M159.13,86.5a6.67,6.67,0,0,1-6.65,6.71,6.77,6.77,0,0,1-6.64-6.76,6.67,6.67,0,0,1,6.57-6.55A6.6,6.6,0,0,1,159.13,86.5Z"/><path class="cls-1" d="M122.43,788.36a6.61,6.61,0,1,1-6.43-6.67A6.66,6.66,0,0,1,122.43,788.36Z"/><path class="cls-1" d="M100.31,84.77a6.57,6.57,0,1,1-6.58-6.48A6.55,6.55,0,0,1,100.31,84.77Z"/><path class="cls-1" d="M181.12,790a6.61,6.61,0,0,1-6.53,6.58,6.5,6.5,0,0,1-6.53-6.54,6.42,6.42,0,0,1,6.49-6.54A6.51,6.51,0,0,1,181.12,790Z"/><path class="cls-1" d="M34.88,90a6.62,6.62,0,0,1-6.65-6.47,6.5,6.5,0,0,1,6.3-6.54,6.36,6.36,0,0,1,6.7,6.3A6.47,6.47,0,0,1,34.88,90Z"/><path class="cls-1" d="M200.4,81.63a6.34,6.34,0,0,1-6.25,6.52,6.47,6.47,0,0,1-6.64-6.44,6.59,6.59,0,0,1,6.43-6.46A6.47,6.47,0,0,1,200.4,81.63Z"/><path class="cls-1" d="M212.78,735.79v15.58a7.24,7.24,0,0,1-7.7-2.41,8.24,8.24,0,0,1-1-9.17A7.92,7.92,0,0,1,212.78,735.79Z"/><path class="cls-1" d="M74.41,799.49a6.35,6.35,0,0,1-6.47-6.26,6.45,6.45,0,0,1,6.43-6.58,6.54,6.54,0,0,1,6.4,6.42A6.45,6.45,0,0,1,74.41,799.49Z"/><path class="cls-1" d="M141.37,80.12a6.38,6.38,0,1,1-6.3-6.44A6.41,6.41,0,0,1,141.37,80.12Z"/><path class="cls-1" d="M75.75,84.88a6.18,6.18,0,0,1-6-6.42,6.29,6.29,0,0,1,6.54-6.17,6.39,6.39,0,0,1,6,6.47A6.28,6.28,0,0,1,75.75,84.88Z"/><path class="cls-1" d="M139.64,794.75a6.33,6.33,0,1,1-12.66-.09,6.33,6.33,0,0,1,12.66.09Z"/><path class="cls-1" d="M192,789.89a6.37,6.37,0,0,1,6.39,6.36,6.27,6.27,0,0,1-6.24,6.24,6.18,6.18,0,0,1-6.35-6.09A6.28,6.28,0,0,1,192,789.89Z"/><path class="cls-1" d="M32.9,791.69A6.24,6.24,0,0,1,39.12,798a6.38,6.38,0,0,1-6.31,6.22,6.23,6.23,0,0,1-6.16-6.32A6.1,6.1,0,0,1,32.9,791.69Z"/><path class="cls-1" d="M182.66,75.59a6.23,6.23,0,0,1-6.33,6.15,6.36,6.36,0,0,1-6.08-6.22,6.21,6.21,0,0,1,6.26-6.2A6.1,6.1,0,0,1,182.66,75.59Z"/><path class="cls-1" d="M17.28,70.73a6.1,6.1,0,0,1,6.18,6.21,6.23,6.23,0,0,1-6.18,6.27c-2.79,0-6.31-2.37-6-6.28C11.52,73.18,13.66,70.72,17.28,70.73Z"/><path class="cls-1" d="M85.69,799.28a6.11,6.11,0,0,1,6.33-6.1,6.19,6.19,0,0,1,6,6.21,6.28,6.28,0,0,1-6.13,6.14A6.18,6.18,0,0,1,85.69,799.28Z"/><path class="cls-1" d="M123.62,73.79a6.14,6.14,0,1,1-12.27-.07,6.14,6.14,0,0,1,12.27.07Z"/><path class="cls-1" d="M156.9,800.94a6.09,6.09,0,1,1-6.16-6A6.08,6.08,0,0,1,156.9,800.94Z"/><path class="cls-1" d="M64.58,72.06a6,6,0,0,1-6.06,6.1,5.91,5.91,0,0,1-6-5.84,6,6,0,0,1,5.89-6.27A6.12,6.12,0,0,1,64.58,72.06Z"/><path class="cls-1" d="M11.31,791.34c0-1.11,0-2.23,0-3.35,0-1.82.3-2.17,2-2.74a6.5,6.5,0,0,1,7.25,2.33,6.48,6.48,0,0,1-7.38,9.94c-1.62-.58-1.83-.86-1.87-2.58C11.29,793.74,11.31,792.54,11.31,791.34Z"/><path class="cls-1" d="M50.45,810.06a5.86,5.86,0,0,1-6-5.78,6,6,0,0,1,6-6.14,6.12,6.12,0,0,1,6,6A6,6,0,0,1,50.45,810.06Z"/><path class="cls-1" d="M158.92,63.11a5.87,5.87,0,0,1,6,5.84A6,6,0,0,1,159,75a6,6,0,0,1-6-5.89A5.93,5.93,0,0,1,158.92,63.11Z"/><path class="cls-1" d="M109.27,799.93a5.89,5.89,0,1,1-5.8,6A5.88,5.88,0,0,1,109.27,799.93Z"/><path class="cls-1" d="M99.88,61.52a5.81,5.81,0,0,1,6,5.83,5.88,5.88,0,0,1-5.73,5.84,5.81,5.81,0,0,1-5.93-5.86A5.74,5.74,0,0,1,99.88,61.52Z"/><path class="cls-1" d="M168.42,801.72a5.66,5.66,0,0,1,5.67,5.81,5.76,5.76,0,0,1-5.74,5.79,5.88,5.88,0,0,1-5.84-6A5.78,5.78,0,0,1,168.42,801.72Z"/><path class="cls-1" d="M35.28,65.87A5.62,5.62,0,0,1,41,60.16a5.77,5.77,0,0,1,5.77,5.77A5.91,5.91,0,0,1,41,71.7,5.76,5.76,0,0,1,35.28,65.87Z"/><path class="cls-1" d="M67.9,816.29a5.61,5.61,0,0,1-5.71-5.75,5.72,5.72,0,0,1,5.63-5.65,5.83,5.83,0,0,1,5.76,5.8A5.73,5.73,0,0,1,67.9,816.29Z"/><path class="cls-1" d="M200.4,69.89a5.73,5.73,0,0,1-5.66-5.62,5.83,5.83,0,0,1,5.78-5.78,5.71,5.71,0,0,1,5.61,5.66A5.63,5.63,0,0,1,200.4,69.89Z"/><path class="cls-1" d="M141.44,68.13a5.61,5.61,0,0,1,.08-11.22,5.61,5.61,0,1,1-.08,11.22Z"/><path class="cls-1" d="M132.44,812.2a5.61,5.61,0,0,1-11.21.18,5.65,5.65,0,0,1,5.53-5.71A5.59,5.59,0,0,1,132.44,812.2Z"/><path class="cls-1" d="M82.43,66.64A5.45,5.45,0,0,1,77,61a5.55,5.55,0,0,1,5.48-5.47,5.66,5.66,0,0,1,5.65,5.59A5.55,5.55,0,0,1,82.43,66.64Z"/><path class="cls-1" d="M191.33,813.82a5.39,5.39,0,0,1-5.47,5.41,5.52,5.52,0,0,1-5.59-5.59,5.68,5.68,0,0,1,5.53-5.48A5.53,5.53,0,0,1,191.33,813.82Z"/><path class="cls-1" d="M23.46,54A5.5,5.5,0,0,1,29,59.32,5.65,5.65,0,0,1,23.42,65,5.51,5.51,0,0,1,18,59.39,5.37,5.37,0,0,1,23.46,54Z"/><path class="cls-1" d="M20.94,815.48A5.39,5.39,0,0,1,26.31,810a5.48,5.48,0,0,1,5.55,5.38,5.6,5.6,0,0,1-5.42,5.56A5.48,5.48,0,0,1,20.94,815.48Z"/><path class="cls-1" d="M188.37,57.81A5.42,5.42,0,1,1,183,52.3,5.41,5.41,0,0,1,188.37,57.81Z"/><path class="cls-1" d="M212.72,807.81c-2.89,1.48-5.67,1-7.56-1.29a6,6,0,0,1-.24-7.34c1.74-2.43,4.56-3.08,7.8-1.68Z"/><path class="cls-1" d="M90.72,817.07a5.37,5.37,0,1,1-5.33-5.34A5.31,5.31,0,0,1,90.72,817.07Z"/><path class="cls-1" d="M118.67,56.19a5.22,5.22,0,0,1,5.42-5.2,5.31,5.31,0,0,1,5.23,5.42,5.4,5.4,0,0,1-5.45,5.24A5.32,5.32,0,0,1,118.67,56.19Z"/><path class="cls-1" d="M144.4,813.27a5.15,5.15,0,0,1,5.2,5.38,5.27,5.27,0,0,1-5.19,5.21,5.41,5.41,0,0,1-5.38-5.31A5.29,5.29,0,0,1,144.4,813.27Z"/><path class="cls-1" d="M212.89,81.54V94.68a6.63,6.63,0,0,1-7.21-9.77C207.18,82.29,209.55,81.33,212.89,81.54Z"/><path class="cls-1" d="M64.93,59.84a5.15,5.15,0,0,1-5.17-5.41A5.28,5.28,0,0,1,65,49.32a5.43,5.43,0,0,1,5.23,5.23A5.27,5.27,0,0,1,64.93,59.84Z"/><path class="cls-1" d="M11.42,742.13c4.38.63,7.27,4,7.1,8a7.57,7.57,0,0,1-7.1,7.39Z"/><path class="cls-1" d="M208.53,820.19a5.15,5.15,0,0,1-5.11,5.22,5.24,5.24,0,0,1-5.32-5.29,5.37,5.37,0,0,1,5.28-5.16A5.24,5.24,0,0,1,208.53,820.19Z"/><path class="cls-1" d="M43.87,826.82a5.18,5.18,0,0,1,0-10.35,5.18,5.18,0,1,1,0,10.35Z"/><path class="cls-1" d="M11.44,145.19A8.57,8.57,0,0,1,18,153.58a8.44,8.44,0,0,1-6.51,8.19Z"/><path class="cls-1" d="M165.11,56.59a5.12,5.12,0,0,1,.58-10.23,5.12,5.12,0,1,1-.58,10.23Z"/><path class="cls-1" d="M107.91,823.4a4.92,4.92,0,0,1-5,5,5.06,5.06,0,0,1-5.15-5.12,5.19,5.19,0,0,1,5-5A5.06,5.06,0,0,1,107.91,823.4Z"/><path class="cls-1" d="M101.46,49.8a4.9,4.9,0,0,1,5-5,5,5,0,0,1,5.11,4.91,5.17,5.17,0,0,1-5.15,5.17A5,5,0,0,1,101.46,49.8Z"/><path class="cls-1" d="M161.78,820a4.9,4.9,0,0,1,5.05,4.9,5,5,0,0,1-4.9,5.11,5.17,5.17,0,0,1-5.11-5A5,5,0,0,1,161.78,820Z"/><path class="cls-1" d="M42.54,48a5,5,0,0,1,4.94-4.86,5.07,5.07,0,0,1,5,5.11,5,5,0,0,1-5.23,4.82A4.91,4.91,0,0,1,42.54,48Z"/><path class="cls-1" d="M206.65,51.58a4.94,4.94,0,0,1-4.84-4.92,4.85,4.85,0,0,1,4.92-4.81,4.77,4.77,0,0,1,4.8,4.89A4.83,4.83,0,0,1,206.65,51.58Z"/><path class="cls-1" d="M56.84,828.2a4.67,4.67,0,0,1,4.79-4.85,4.8,4.8,0,0,1,4.84,4.85A4.94,4.94,0,0,1,61.75,833,4.82,4.82,0,0,1,56.84,828.2Z"/><path class="cls-1" d="M148,49.76a4.65,4.65,0,0,1-4.77-4.85,4.8,4.8,0,0,1,4.72-4.72,5,5,0,0,1,4.84,4.91A4.8,4.8,0,0,1,148,49.76Z"/><path class="cls-1" d="M120.39,834.53a4.78,4.78,0,0,1-4.78-4.64,4.88,4.88,0,0,1,4.86-4.85,4.77,4.77,0,0,1,4.61,4.82A4.65,4.65,0,0,1,120.39,834.53Z"/><path class="cls-1" d="M93.66,43.59a4.69,4.69,0,1,1-4.75-4.72A4.72,4.72,0,0,1,93.66,43.59Z"/><path class="cls-1" d="M179.41,835.94a4.7,4.7,0,1,1,4.63-4.79A4.7,4.7,0,0,1,179.41,835.94Z"/><path class="cls-1" d="M11.4,101.18V87.87a6.27,6.27,0,0,1,6.26,5.89C18,97.7,15.52,100.72,11.4,101.18Z"/><path class="cls-1" d="M24.76,832.86a4.58,4.58,0,0,1-4.48,4.63,4.47,4.47,0,0,1-4.69-4.37,4.58,4.58,0,0,1,4.55-4.81A4.71,4.71,0,0,1,24.76,832.86Z"/><path class="cls-1" d="M30,46.45A4.56,4.56,0,0,1,25.36,42a4.69,4.69,0,0,1,4.7-4.7,4.57,4.57,0,0,1,4.46,4.65A4.46,4.46,0,0,1,30,46.45Z"/><path class="cls-1" d="M184.67,39.93a4.53,4.53,0,0,1,4.92-4.18,4.44,4.44,0,0,1,4.07,4.75A4.51,4.51,0,0,1,189,44.74,4.64,4.64,0,0,1,184.67,39.93Z"/><path class="cls-1" d="M83.66,834.65A4.63,4.63,0,0,1,79,839.14a4.52,4.52,0,0,1-4.33-4.56,4.43,4.43,0,0,1,4.63-4.44A4.52,4.52,0,0,1,83.66,834.65Z"/><path class="cls-1" d="M130.24,43.23a4.45,4.45,0,0,1-.19-8.9,4.45,4.45,0,1,1,.19,8.9Z"/><path class="cls-1" d="M137.93,840.43a4.3,4.3,0,0,1-4.42-4.34,4.37,4.37,0,0,1,4.33-4.45,4.45,4.45,0,0,1,4.45,4.36A4.39,4.39,0,0,1,137.93,840.43Z"/><path class="cls-1" d="M71.49,32.78A4.21,4.21,0,0,1,75.77,37a4.35,4.35,0,0,1-4.36,4.45,4.46,4.46,0,0,1-4.33-4.29A4.35,4.35,0,0,1,71.49,32.78Z"/><path class="cls-1" d="M197,833.47a4.31,4.31,0,0,1,4.23,4.31,4.46,4.46,0,0,1-4.31,4.29,4.32,4.32,0,0,1-4.29-4.49A4.19,4.19,0,0,1,197,833.47Z"/><path class="cls-1" d="M41.84,839.2A4.2,4.2,0,1,1,37.61,835,4.22,4.22,0,0,1,41.84,839.2Z"/><path class="cls-1" d="M175.85,34a4.22,4.22,0,0,1-4.15,4.1,4.12,4.12,0,0,1-4.12-4.34,4,4,0,0,1,4.23-3.94A4.13,4.13,0,0,1,175.85,34Z"/><path class="cls-1" d="M100.69,840.92A4.09,4.09,0,0,1,96.57,845a4.21,4.21,0,0,1-4.06-4.18,4.08,4.08,0,0,1,4.18-4A4,4,0,0,1,100.69,840.92Z"/><path class="cls-1" d="M112.66,28.21a4.19,4.19,0,0,1,4.11,4.15,4.07,4.07,0,0,1-4,4,4,4,0,0,1-4.06-3.85A4.08,4.08,0,0,1,112.66,28.21Z"/><path class="cls-1" d="M159.59,842.62a3.94,3.94,0,0,1-4,3.89,4,4,0,0,1-4-3.94,4.06,4.06,0,0,1,4.14-4A4,4,0,0,1,159.59,842.62Z"/><path class="cls-1" d="M212.79,122.6v14.31a7.55,7.55,0,0,1-4.6-6.59C207.81,127.24,209.55,124.29,212.79,122.6Z"/><path class="cls-1" d="M53.67,26.67a3.91,3.91,0,0,1,3.95,4,3.86,3.86,0,0,1-3.76,3.89,3.93,3.93,0,0,1-4.09-3.82A4,4,0,0,1,53.67,26.67Z"/><path class="cls-1" d="M55.1,841.79a3.84,3.84,0,0,1,3.83,3.76,3.71,3.71,0,0,1-3.63,3.89,3.84,3.84,0,0,1-4-3.81A4,4,0,0,1,55.1,841.79Z"/><path class="cls-1" d="M114.12,851a3.67,3.67,0,0,1-3.67-3.61,3.7,3.7,0,1,1,3.67,3.61Z"/><path class="cls-1" d="M154.08,23.78a3.71,3.71,0,1,1-3.6,3.93A3.7,3.7,0,0,1,154.08,23.78Z"/><path class="cls-1" d="M176.74,848.94a3.73,3.73,0,0,1-3.65,3.7,3.61,3.61,0,0,1-3.51-3.54,3.47,3.47,0,0,1,3.35-3.63A3.6,3.6,0,0,1,176.74,848.94Z"/><path class="cls-1" d="M98.74,25.83a3.59,3.59,0,0,1-3.45,3.6,3.73,3.73,0,0,1-3.72-3.63,3.61,3.61,0,0,1,3.75-3.54A3.46,3.46,0,0,1,98.74,25.83Z"/><path class="cls-1" d="M39.71,24.43a3.56,3.56,0,0,1-3.5,3.5,3.66,3.66,0,0,1-3.56-3.49,3.55,3.55,0,0,1,3.67-3.57A3.47,3.47,0,0,1,39.71,24.43Z"/><path class="cls-1" d="M11.31,31.34c3.51-.24,5.48,1.46,5.38,4.24s-2.06,4.17-5.19,3.87a13.39,13.39,0,0,1-.18-1.58C11.3,35.74,11.31,33.61,11.31,31.34Z"/><path class="cls-1" d="M212.73,719.41v13.45C208,730.47,207.81,722,212.73,719.41Z"/><path class="cls-1" d="M199,22.65a3.39,3.39,0,0,1-3.44,3.46,3.48,3.48,0,0,1-3.34-3.36,3.39,3.39,0,0,1,3.48-3.42A3.28,3.28,0,0,1,199,22.65Z"/><path class="cls-1" d="M76,852.29a3.49,3.49,0,0,1-3.51,3.21A3.37,3.37,0,0,1,69.36,852a3.23,3.23,0,0,1,3.45-3.16A3.37,3.37,0,0,1,76,852.29Z"/><path class="cls-1" d="M139.93,21.32a3.31,3.31,0,0,1-3.2,3.23,3.36,3.36,0,0,1-3.34-3.36A3.29,3.29,0,0,1,136.62,18,3.22,3.22,0,0,1,139.93,21.32Z"/><path class="cls-1" d="M14.38,711.41l.06.75c-.72.94-1.43,1.9-2.17,2.83a2.18,2.18,0,0,1-.58.35c-.49-1.87-.54-11.13-.09-13.4C14.53,704,15.52,707.35,14.38,711.41Z"/><path class="cls-1" d="M11.31,850.56c0-.32,0-.64,0-1,0-2.22,1.54-3.21,3.61-2.37a3.45,3.45,0,0,1-2.35,6.49C11.36,853.32,11.31,853.2,11.31,850.56Z"/><path class="cls-1" d="M131.58,850.36a3.19,3.19,0,0,1,3.24,3.15,3.14,3.14,0,0,1-3.13,3.24,3.19,3.19,0,0,1-3.26-3.13A3.26,3.26,0,0,1,131.58,850.36Z"/><path class="cls-1" d="M77.67,16.48a3.13,3.13,0,0,1,3.18,3.14,3.26,3.26,0,0,1-3.25,3.11,3.13,3.13,0,0,1-3-3.07A3,3,0,0,1,77.67,16.48Z"/><path class="cls-1" d="M193.67,855.15a3.09,3.09,0,0,1-2.88,3.19,3.17,3.17,0,0,1-3.25-3.09,3.1,3.1,0,0,1,3-3A3,3,0,0,1,193.67,855.15Z"/><path class="cls-1" d="M212.77,779.43v11.36a5.49,5.49,0,0,1-3.32-4.64C209,783.39,210,781.38,212.77,779.43Z"/><path class="cls-1" d="M21.69,17.93a3,3,0,1,1-3-3A3,3,0,0,1,21.69,17.93Z"/><path class="cls-1" d="M175.29,16.51a2.79,2.79,0,0,1,2.77-2.94,2.91,2.91,0,0,1,3,3,3,3,0,0,1-2.94,2.86A2.9,2.9,0,0,1,175.29,16.51Z"/><path class="cls-1" d="M34.05,856.91a2.92,2.92,0,0,1-2.8,3,3,3,0,0,1-3-3,2.92,2.92,0,0,1,3-2.8A2.79,2.79,0,0,1,34.05,856.91Z"/><path class="cls-1" d="M90.21,855.56A2.76,2.76,0,0,1,93,858.5a2.89,2.89,0,0,1-2.75,2.76,3,3,0,0,1-2.94-2.88A2.87,2.87,0,0,1,90.21,855.56Z"/><path class="cls-1" d="M119.25,17.53a2.77,2.77,0,1,1,0-5.53,2.77,2.77,0,0,1,0,5.53Z"/><path class="cls-1" d="M11.45,814v-9.92C15.64,806.16,15.74,811.09,11.45,814Z"/><path class="cls-1" d="M146.5,860.06a2.58,2.58,0,0,1,2.72-2.66,2.69,2.69,0,0,1,2.63,2.55,2.77,2.77,0,0,1-2.64,2.81A2.67,2.67,0,0,1,146.5,860.06Z"/><path class="cls-1" d="M62.76,13.12a2.5,2.5,0,0,1-2.55,2.55,2.64,2.64,0,0,1-2.66-2.5,2.76,2.76,0,0,1,2.72-2.71A2.63,2.63,0,0,1,62.76,13.12Z"/><path class="cls-1" d="M210.66,861.72a2.52,2.52,0,1,1-2.43-2.51A2.56,2.56,0,0,1,210.66,861.72Z"/><path class="cls-1" d="M212.76,25.49v7.28c-2.28-.45-3.29-1.49-3.37-3.41S210.26,26.21,212.76,25.49Z"/><path class="cls-1" d="M48.7,860.86a2.41,2.41,0,0,1,2.35,2.22,2.53,2.53,0,0,1-2.39,2.47,2.4,2.4,0,0,1-2.3-2.51A2.26,2.26,0,0,1,48.7,860.86Z"/><path class="cls-1" d="M109.88,864.89a2.25,2.25,0,0,1-2.31,2.22,2.29,2.29,0,0,1-2.15-2.39,2.24,2.24,0,0,1,2.2-2.09A2.19,2.19,0,0,1,109.88,864.89Z"/><path class="cls-1" d="M162.91,10a2.28,2.28,0,0,1-2.33,2.21,2.22,2.22,0,0,1-2.13-2.38,2.16,2.16,0,0,1,2.19-2.08A2.24,2.24,0,0,1,162.91,10Z"/><path class="cls-1" d="M103.84,8.33a2.15,2.15,0,0,1-2.15,2.08,2,2,0,0,1-2.13-2.06,2.15,2.15,0,0,1,2.22-2.23A2.3,2.3,0,0,1,103.84,8.33Z"/><path class="cls-1" d="M166.7,868.57a2.06,2.06,0,0,1-2.1-2.11,2.11,2.11,0,0,1,2-2,2.07,2.07,0,0,1,2.07,1.89A2,2,0,0,1,166.7,868.57Z"/><path class="cls-1" d="M42.61,8.81a2.08,2.08,0,0,1-1.89-2.07A2,2,0,0,1,42.85,5a1.82,1.82,0,0,1,1.72,1.91A1.93,1.93,0,0,1,42.61,8.81Z"/><path class="cls-1" d="M212.77,840.65v6.83a3,3,0,0,1-2.24-2.78C210.28,843.07,211,841.82,212.77,840.65Z"/><path class="cls-1" d="M204,5.06a1.82,1.82,0,0,1-3.64.22A1.89,1.89,0,0,1,202,3.33,2,2,0,0,1,204,5.06Z"/><path class="cls-1" d="M66.13,871.37a1.7,1.7,0,0,1-1.6-1.71A1.57,1.57,0,0,1,66.14,868a1.7,1.7,0,0,1,1.75,1.79A1.81,1.81,0,0,1,66.13,871.37Z"/><path class="cls-1" d="M144.81,3.49a1.59,1.59,0,0,1-1.62,1.66,1.72,1.72,0,0,1-1.75-1.56,1.78,1.78,0,0,1,1.77-1.81A1.72,1.72,0,0,1,144.81,3.49Z"/><path class="cls-1" d="M86.3,2.11c-1,.68-1.49,1.29-2.13,1.45-.87.21-1.68-.75-1.55-1.66S83.38.35,84.25.55C84.88.7,85.38,1.38,86.3,2.11Z"/><path class="cls-1" d="M127.29,871.22c-.89.75-1.37,1.41-2,1.61-.86.28-1.72-.6-1.67-1.53s.66-1.59,1.51-1.47C125.77,869.92,126.33,870.57,127.29,871.22Z"/><path class="cls-1" d="M185.57,872.54c-.18,1.41-.92,1.4-1.66,1.38a1.11,1.11,0,0,1-1.19-1.2,1.33,1.33,0,0,1,1.64-1.27C184.9,871.66,185.29,872.28,185.57,872.54Z"/><path class="cls-1" d="M23.94,0H26.2c.3,1-.12,1.52-.92,1.6S24,1.21,23.94,0Z"/><path class="cls-1" d="M212.81,68.65v4A2.94,2.94,0,0,1,212.81,68.65Z"/><path class="cls-1" d="M11.76,110.91v2.29h-.25v-2.32Z"/><circle class="cls-2" cx="112.05" cy="433.37" r="109.55"/></g></g></svg>