<svg xmlns="http://www.w3.org/2000/svg" viewBox="0 0 179.05 179.05"><defs><style>.cls-1{fill:#00d33c;}.cls-2{fill:#fff;}</style></defs><g id="Ebene_2" data-name="Ebene 2"><g id="Ebene_2-2" data-name="Ebene 2"><circle class="cls-1" cx="89.52" cy="89.52" r="89.52"/><path class="cls-2" d="M102.19,149.8a1.47,1.47,0,0,1-1.47,1.47H78.33a1.47,1.47,0,0,1-1.47-1.47l.49-36.28L38.78,38.17a.89.89,0,0,1,.81-1.31h25.5a2.34,2.34,0,0,1,2.12,1.31L90.42,90.8l23.7-52.63a2.36,2.36,0,0,1,2.13-1.31h23.2a.89.89,0,0,1,.82,1.31L101.7,113.52Z"/></g></g></svg>